<svg id="Layer_1" data-name="Layer 1" xmlns="http://www.w3.org/2000/svg" viewBox="0 0 24 24"><defs><style>.cls-1{fill:#3f3c3a;}</style></defs><path class="cls-1" d="M16.44,5.5a2.7,2.7,0,0,1,2.65,2.73,3.11,3.11,0,0,1-.06.59c-.58,3-4.57,7-7,9.08-2.41-2.11-6.41-6.13-7-9.1A2.76,2.76,0,0,1,5,8.23a2.65,2.65,0,0,1,5.16-.91,2,2,0,0,0,3.78,0,2.66,2.66,0,0,1,2.5-1.82m0-2a4.66,4.66,0,0,0-4.39,3.16A4.65,4.65,0,0,0,3,8.23a4.57,4.57,0,0,0,.1,1c.95,4.89,8.46,10.91,8.78,11.17l.17.13.16-.13C12.53,20.11,20,14.09,21,9.21A4.74,4.74,0,0,0,16.44,3.5Z"/></svg>