<svg id="Layer_1" data-name="Layer 1" xmlns="http://www.w3.org/2000/svg" viewBox="0 0 24 24"><defs><style>.cls-1{fill:#3f3c3a;}</style></defs><path id="Path" class="cls-1" d="M5,8v2H7.33V8Z"/><path id="Path-2" data-name="Path" class="cls-1" d="M12,8v2h7V8Z"/><g id="타원_92" data-name="타원 92"><path class="cls-1" d="M9.5,7.5A1.5,1.5,0,1,1,8,9,1.5,1.5,0,0,1,9.5,7.5M9.5,6a3,3,0,1,0,3,3,3,3,0,0,0-3-3Z"/></g><path id="Path-2-2" data-name="Path-2" class="cls-1" d="M12,16V14H5v2Z"/><path id="Path-2-3" data-name="Path-2" class="cls-1" d="M19,16V14H16v2Z"/><g id="타원_92-2" data-name="타원 92"><path class="cls-1" d="M14,13.5A1.5,1.5,0,1,1,12.5,15,1.5,1.5,0,0,1,14,13.5M14,12a3,3,0,1,0,3,3,3,3,0,0,0-3-3Z"/></g></svg>